<svg xmlns="http://www.w3.org/2000/svg" width="262" height="112.593" viewBox="0 0 262 112.593">
  <g id="Groupe_1" data-name="Groupe 1" transform="translate(-276 -189)">
    <g id="fall-in-love" transform="translate(275.787 188.999)">
      <path id="Tracé_1" data-name="Tracé 1" d="M403.772,15.907a1.649,1.649,0,0,0-1.444-1.06l-12.556-.739-.739-12.556A1.649,1.649,0,0,0,386.222.483L373.9,12.8a1.649,1.649,0,0,0-.48,1.263l.825,14.019a1.649,1.649,0,0,0,1.549,1.549l14.019.825c.032,0,.065,0,.1,0a1.65,1.65,0,0,0,1.166-.483l12.32-12.32A1.649,1.649,0,0,0,403.772,15.907Z" transform="translate(-291.167 0)" fill="#ffdf65"/>
      <path id="Tracé_2" data-name="Tracé 2" d="M376.3,57.785a1.642,1.642,0,0,0,.429,1.013L391.82,43.838l.025-.028h-.022l-.338-5.739L376.048,53.54Z" transform="translate(-293.219 -29.7)" fill="#ffcd2c"/>
      <path id="Tracé_3" data-name="Tracé 3" d="M407.857,67.723a1.649,1.649,0,0,0-1.069-2.812l-12.556-.739v0l-15.1,14.992a1.644,1.644,0,0,0,1.12.536l14.019.825c.032,0,.065,0,.1,0a1.65,1.65,0,0,0,1.166-.483Z" transform="translate(-295.627 -50.064)" fill="#ffcd2c"/>
      <path id="Tracé_4" data-name="Tracé 4" d="M434.146,67.554a1.649,1.649,0,0,0-1.444-1.06l-5-.294L412.35,81.645l7.837.461c.032,0,.065,0,.1,0a1.65,1.65,0,0,0,1.166-.483l12.32-12.32A1.649,1.649,0,0,0,434.146,67.554Z" transform="translate(-321.541 -51.647)" fill="#f4b70c"/>
      <path id="Tracé_5" data-name="Tracé 5" d="M349.971,82.224a1.649,1.649,0,0,1-1.172-2.808l19.7-19.925a1.649,1.649,0,0,1,2.345,2.318l-19.7,19.925A1.644,1.644,0,0,1,349.971,82.224Z" transform="translate(-271.588 -46.031)" fill="#464649"/>
      <path id="Tracé_6" data-name="Tracé 6" d="M88.453,150.945c-.926-6.766-3.569-12.182-7.856-16.1a23.287,23.287,0,0,0-13.92-5.92,26.075,26.075,0,0,0-14.549,3,19.877,19.877,0,0,0-7.649,7.2,19.877,19.877,0,0,0-7.649-7.2,26.071,26.071,0,0,0-14.549-3,23.285,23.285,0,0,0-13.92,5.92c-4.287,3.915-6.931,9.331-7.856,16.1-1.027,7.51.66,15.142,5.015,22.684a69.727,69.727,0,0,0,15.107,17.508,119.615,119.615,0,0,0,23.131,15.48,1.648,1.648,0,0,0,1.442,0,119.6,119.6,0,0,0,23.131-15.48,69.732,69.732,0,0,0,15.107-17.508C87.794,166.087,89.481,158.455,88.453,150.945Z" transform="translate(0 -100.514)" fill="#ff3d43"/>
      <g id="Groupe_2" data-name="Groupe 2" transform="translate(40.477 28.322)">
        <path id="Tracé_7" data-name="Tracé 7" d="M231.358,150.949c-.926-6.766-3.569-12.182-7.856-16.1a23.287,23.287,0,0,0-13.92-5.92,26.515,26.515,0,0,0-6.21.216,23.019,23.019,0,0,1,12.126,5.7c4.287,3.916,6.931,9.332,7.856,16.1,1.027,7.51-.66,15.142-5.015,22.684a69.728,69.728,0,0,1-15.107,17.508,121.843,121.843,0,0,1-19.85,13.749c1.925,1.066,3.131,1.658,3.281,1.731a1.648,1.648,0,0,0,1.442,0,119.6,119.6,0,0,0,23.131-15.48,69.732,69.732,0,0,0,15.107-17.508C230.7,166.092,232.386,158.459,231.358,150.949Z" transform="translate(-183.382 -128.841)" fill="#d72e2e"/>
      </g>
      <path id="Tracé_8" data-name="Tracé 8" d="M60.786,366.453a1.649,1.649,0,0,1-1.158-2.822l21.314-21.047a1.649,1.649,0,1,1,2.317,2.346L61.944,365.978A1.644,1.644,0,0,1,60.786,366.453Z" transform="translate(-45.972 -266.906)" fill="#464649"/>
      <path id="Tracé_9" data-name="Tracé 9" d="M195.4,49.35a1.649,1.649,0,0,1-1.649-1.649V41.633a1.649,1.649,0,1,1,3.3,0V47.7A1.649,1.649,0,0,1,195.4,49.35Z" transform="translate(-150.994 -31.194)" fill="#ffdf65"/>
      <path id="Tracé_10" data-name="Tracé 10" d="M132.834,70.283a1.643,1.643,0,0,1-1.168-.485l-4.284-4.3a1.649,1.649,0,1,1,2.336-2.327l4.284,4.3a1.648,1.648,0,0,1-1.168,2.812Z" transform="translate(-98.84 -48.906)" fill="#ffdf65"/>
      <path id="Tracé_11" data-name="Tracé 11" d="M242.761,70.283a1.649,1.649,0,0,1-1.168-2.812l4.284-4.3a1.649,1.649,0,0,1,2.336,2.327l-4.284,4.3A1.642,1.642,0,0,1,242.761,70.283Z" transform="translate(-187.945 -48.906)" fill="#ffdf65"/>
      <g id="Groupe_3" data-name="Groupe 3" transform="translate(28.334 55.618)">
        <path id="Tracé_12" data-name="Tracé 12" d="M131.338,253.013a3.2,3.2,0,1,0,3.2,3.2A3.2,3.2,0,0,0,131.338,253.013Z" transform="translate(-128.139 -253.013)" fill="#464649"/>
        <path id="Tracé_13" data-name="Tracé 13" d="M248.153,253.013a3.2,3.2,0,1,0,3.2,3.2A3.2,3.2,0,0,0,248.153,253.013Z" transform="translate(-219.276 -253.013)" fill="#464649"/>
        <path id="Tracé_14" data-name="Tracé 14" d="M181.9,283.881a1.649,1.649,0,0,0-2.066,1.081,4.041,4.041,0,0,1-7.71,0,1.649,1.649,0,0,0-3.147.985,7.338,7.338,0,0,0,14,0A1.649,1.649,0,0,0,181.9,283.881Z" transform="translate(-159.943 -277.036)" fill="#464649"/>
      </g>
      <path id="Tracé_15" data-name="Tracé 15" d="M21.97,419.283a7.252,7.252,0,0,0-5.127-2.632,7.251,7.251,0,0,0-2.632-5.127,6.956,6.956,0,0,0-9.069,0c-6.971,5.294-2.738,17.831-2.554,18.362a1.648,1.648,0,0,0,1.02,1.02,29.338,29.338,0,0,0,8.635,1.441c3.543,0,7.36-.877,9.728-3.995A6.955,6.955,0,0,0,21.97,419.283Z" transform="translate(-0.729 -319.753)" fill="#b32425"/>
      <path id="Tracé_16" data-name="Tracé 16" d="M23,447.175a7.719,7.719,0,0,0-1.825-1.578,7.634,7.634,0,0,1-1.671,4.322c-2.367,3.118-6.184,3.994-9.727,3.995a28.908,28.908,0,0,1-7.31-1.041,29.6,29.6,0,0,0,1.15,4.906,1.648,1.648,0,0,0,1.02,1.02,29.338,29.338,0,0,0,8.635,1.441c3.543,0,7.36-.877,9.728-3.995A6.955,6.955,0,0,0,23,447.175Z" transform="translate(-1.76 -347.645)" fill="#9e1219"/>
    </g>
    <text id="TindLove" transform="translate(414 257)" fill="#ff3d43" font-size="30" font-family="SegoeUI, Segoe UI" letter-spacing="0.02em"><tspan x="0" y="0">TindLove</tspan></text>
  </g>
</svg>
